# xmcd
#
# Track frame offsets:
#	150
#	20704
#	38716
#	56506
#	75519
#	93149
#	106951
#	126579
#	144101
#	161924
#	182956
#	204951
#	226264
#	246664
#	268176
#	290724
#
# Disc length: 4135 seconds
#
# Revision: 0
# Processed by: cddbd v1.5.2PL0 Copyright (c) Steve Scherf et al.
# Submitted via: EZCDAudioConverter 7.1.5.1
#
DISCID=e6102510
DTITLE=群星 - 闭上眼睛去旅行 DISK-A
DYEAR=2003
DGENRE=
TTITLE0=林忆莲 - 至少还有你
TTITLE1=陶喆 - 沙滩
TTITLE2=辛晓琪 - 味道
TTITLE3=黄莺莺 - 春光
TTITLE4=张清芳/范怡文 - 这些日子以来
TTITLE5=B.A.D - 皇后之歌
TTITLE6=江美琪 - 双手的温柔
TTITLE7=蔡健雅 - 纪念
TTITLE8=凤飞飞 - 陪伤心人说往事
TTITLE9=苏永康 - 男人不该让女人流泪
TTITLE10=林慧萍 - 情难枕
TTITLE11=侯湘婷 - 秋天别来
TTITLE12=陈小霞 - 傀儡尪仔
TTITLE13=莫文蔚 - 爱情
TTITLE14=伍思凯 - 分享
TTITLE15=萧亚轩 - 最熟悉的陌生人
EXTD=
EXTT0=
EXTT1=
EXTT2=
EXTT3=
EXTT4=
EXTT5=
EXTT6=
EXTT7=
EXTT8=
EXTT9=
EXTT10=
EXTT11=
EXTT12=
EXTT13=
EXTT14=
EXTT15=
PLAYORDER=
